<svg width="64" height="64" viewBox="0 0 64 64" fill="none" xmlns="http://www.w3.org/2000/svg">
<rect width="64" height="64" fill="white"/>
<path d="M49 27.6207C49 34.5989 44.7224 40.953 40.2739 45.6508C38.0665 47.9819 35.8557 49.8642 34.196 51.1639C33.3669 51.8131 32.6774 52.3153 32.1972 52.6539C32.1269 52.7034 32.0611 52.7495 32 52.792C31.9389 52.7495 31.8731 52.7034 31.8028 52.6539C31.3226 52.3153 30.6331 51.8131 29.804 51.1639C28.1443 49.8642 25.9335 47.9819 23.7261 45.6508C19.2776 40.953 15 34.5989 15 27.6207C15 17.8568 22.6428 10 32 10C41.3572 10 49 17.8568 49 27.6207Z" stroke="white" stroke-width="2"/>
<circle r="5.39909" transform="matrix(-0.702151 -0.712028 -0.702151 0.712028 32.0278 27.7031)" stroke="white" stroke-width="2"/>
</svg>
