<svg id="Layer_1" data-name="Layer 1" xmlns="http://www.w3.org/2000/svg" viewBox="0 0 337.69 115.71"><defs><style>.cls-1{fill:#0052e8;}.cls-2{fill:#5fe5f7;}.cls-3{fill:#02affd;}</style></defs><title>autechjobs</title><path class="cls-1" d="M107.36,53.5c0,28.19-37.58,54-37.58,54V67.6a14.1,14.1,0,0,0,0-28.19,13.79,13.79,0,0,0-2.42.21A18.8,18.8,0,0,0,51,30H40.45A37.58,37.58,0,0,1,107.36,53.5Z"/><path class="cls-2" d="M46.81,86.38h-24A18.82,18.82,0,0,1,4,67.57V48.83A18.82,18.82,0,0,1,22.83,30H40.45A37.36,37.36,0,0,0,32.2,53.5C32.2,65.51,39,77.06,46.81,86.38Z"/><path class="cls-3" d="M69.78,67.6v39.92l0,0a130.35,130.35,0,0,1-23-21.12C39,77.06,32.2,65.51,32.2,53.5A37.36,37.36,0,0,1,40.45,30H51a18.8,18.8,0,0,1,16.39,9.6,14.1,14.1,0,0,0,2.42,28Z"/><path class="cls-3" d="M69.78,67.6v39.92l0,0a130.35,130.35,0,0,1-23-21.12C39,77.06,32.2,65.51,32.2,53.5A37.36,37.36,0,0,1,40.45,30H51a18.8,18.8,0,0,1,16.39,9.6,14.1,14.1,0,0,0,2.42,28Z"/><path d="M140.05,66.86h-5V65.09a6.81,6.81,0,0,1-5,2,6.93,6.93,0,0,1-5.18-1.77,6.33,6.33,0,0,1-1.73-4.63,5.6,5.6,0,0,1,1.79-4.26,7.3,7.3,0,0,1,5.18-1.66h4.81v-1q0-3.21-3.79-3.21a4.88,4.88,0,0,0-3.91,1.68L124,49a7.92,7.92,0,0,1,3.18-2.23,12.09,12.09,0,0,1,4.2-.59q8.72,0,8.71,7.22Zm-5.14-7.54v-1.1h-4q-2.85,0-2.85,2.31c0,1.57,1,2.36,2.93,2.36,1.74,0,2.9-.43,3.47-1.29A4.29,4.29,0,0,0,134.91,59.32Z"/><path d="M162.31,66.86h-5V65a6.74,6.74,0,0,1-5.11,2.12,6.49,6.49,0,0,1-4.82-1.81,7.82,7.82,0,0,1-2.08-5.8V46.4h5.14V58.77a3.71,3.71,0,0,0,1.08,2.9,3.52,3.52,0,0,0,4.54,0,3.68,3.68,0,0,0,1.09-2.9V46.4h5.14Z"/><path d="M177.23,66.86h-2.79A5.66,5.66,0,0,1,169.93,65a5.81,5.81,0,0,1-1.42-4V50.88h-2.15V47h2.15V41h5.14v6h3.58v3.89h-3.58v9.81c0,1.23.59,1.85,1.76,1.85h1.82Z"/><path d="M198.62,58.22h-12.8a4.59,4.59,0,0,0,1.2,3.3,4.34,4.34,0,0,0,3.28,1.25,6.32,6.32,0,0,0,4.63-1.92l3.1,3a11.18,11.18,0,0,1-3.29,2.4,11,11,0,0,1-4.48.82q-9.47,0-9.46-10.48a11.37,11.37,0,0,1,2.47-7.73,8.15,8.15,0,0,1,6.44-2.71A8.32,8.32,0,0,1,196.3,49a10.28,10.28,0,0,1,2.32,7Zm-5-3.49a5.89,5.89,0,0,0-.47-2.2,3.81,3.81,0,0,0-6.83,0,5.7,5.7,0,0,0-.48,2.2Z"/><path d="M218.21,64.3a8.94,8.94,0,0,1-6.75,2.79A8.79,8.79,0,0,1,205.37,65q-3.06-2.74-3.06-8.36c0-3.74,1-6.52,3.06-8.32a8.74,8.74,0,0,1,6.09-2.12,8.89,8.89,0,0,1,6.75,2.75l-3.44,3.45a4.43,4.43,0,0,0-3.29-1.61,3.57,3.57,0,0,0-2.91,1.37,7.1,7.1,0,0,0-1.12,4.48c0,2.09.37,3.6,1.12,4.51a3.55,3.55,0,0,0,2.91,1.38,4.43,4.43,0,0,0,3.29-1.61Z"/><path d="M239,66.86h-5.15V54.37a3.59,3.59,0,0,0-1.05-2.82,3.23,3.23,0,0,0-2.24-.79,3.13,3.13,0,0,0-2.22.79,3.65,3.65,0,0,0-1,2.82V66.86h-5.15V38.91h5.15v9.38a6.59,6.59,0,0,1,4.89-2.12,6.34,6.34,0,0,1,5.08,2.12A7.88,7.88,0,0,1,239,53.63Z"/><path d="M249.65,68.66a5.84,5.84,0,0,1-1.41,4,5.73,5.73,0,0,1-4.55,1.85h-2.91V70.19h1.94a1.6,1.6,0,0,0,1.79-1.84V46.4h5.14Zm0-25.71h-5.14V38.79h5.14Z"/><path d="M271.75,56.61a18.18,18.18,0,0,1-.47,4.67,7.38,7.38,0,0,1-1.84,3.3,9.26,9.26,0,0,1-12.68,0,7.4,7.4,0,0,1-1.85-3.3,18.64,18.64,0,0,1-.47-4.67c0-3.66.78-6.32,2.36-8a9.27,9.27,0,0,1,12.6,0Q271.76,51.11,271.75,56.61Zm-5.14,0q0-3.77-1.17-5a3.17,3.17,0,0,0-2.36-.9,3.13,3.13,0,0,0-2.33.9q-1.17,1.19-1.17,5t1.17,5a3.13,3.13,0,0,0,2.33.9,3.17,3.17,0,0,0,2.36-.9Q266.61,60.42,266.61,56.61Z"/><path d="M293.73,56.61a30.23,30.23,0,0,1-.27,4.71,7,7,0,0,1-1.81,3.92,6.69,6.69,0,0,1-5,1.85,6.58,6.58,0,0,1-5.11-2.16v1.93h-4.94V38.91h5.14v9.3a6.32,6.32,0,0,1,4.93-2,6.7,6.7,0,0,1,5,1.84,7.14,7.14,0,0,1,1.8,3.93A29.82,29.82,0,0,1,293.73,56.61Zm-5.14,0a12.38,12.38,0,0,0-.43-3.89,3.25,3.25,0,0,0-6,0,12.38,12.38,0,0,0-.43,3.89,12.43,12.43,0,0,0,.43,3.89,3.23,3.23,0,0,0,6,0A12.43,12.43,0,0,0,288.59,56.61Z"/><path d="M314,60.42a5.78,5.78,0,0,1-2.51,5,10.56,10.56,0,0,1-6.17,1.65,17.6,17.6,0,0,1-4.67-.51,9.34,9.34,0,0,1-4-2.43L300,60.81a7.4,7.4,0,0,0,5.46,1.92c2.41,0,3.61-.7,3.61-2.12,0-1.12-.72-1.75-2.16-1.88l-3.22-.32q-6-.58-6-5.73a5.75,5.75,0,0,1,2.39-4.86,8.92,8.92,0,0,1,5.5-1.65c3.5,0,6.11.8,7.81,2.39l-3.14,3.18a7,7,0,0,0-4.75-1.37c-1.94,0-2.91.65-2.91,2,0,1.05.71,1.64,2.12,1.77l3.22.31Q314,55,314,60.42Z"/><path d="M323.12,41.11h-2.2v7h-1.65v-7h-2.2V39.64h6.05Z"/><path d="M332.09,48.07h-1.65V43.15l-1.61,3.2h-1.11l-1.62-3.2v4.92h-1.65V39.64h1.62l2.19,4.56,2.18-4.56h1.65Z"/></svg>