<svg id="Layer_1" data-name="Layer 1" xmlns="http://www.w3.org/2000/svg" viewBox="0 0 381.96 115.71"><title>autechjobs</title><path d="M103.66,52.75c0,21.67-23.88,42.4-33.14,49.63V67a14,14,0,0,0-1.78-27.71l-.42-.74-.53-.92c-.26-.46-.53-.92-.82-1.35a20.83,20.83,0,0,0-4.37-4.79c-.33-.27-.69-.53-1-.76a20.93,20.93,0,0,0-8-3.48c-.46-.1-.92-.17-1.37-.23a20.38,20.38,0,0,0-2.83-.2H44a35.44,35.44,0,0,1,59.65,25.89Z"/><path d="M65.92,67.17v35.24a128.92,128.92,0,0,1-19-18.13l-.69-.82H21.08A16.63,16.63,0,0,1,4.49,66.87V48.05A16.61,16.61,0,0,1,21.08,31.46H49.33a11,11,0,0,1,1.54.1,5.36,5.36,0,0,1,.69.06,8.21,8.21,0,0,1,1.19.2,4.69,4.69,0,0,1,.72.17,16.32,16.32,0,0,1,3.28,1.21c.43.23.86.46,1.25.72a14.3,14.3,0,0,1,3.42,2.83c.1.1,1.07,1.22,1.27,1.48s1,1.45,1.08,1.68a14,14,0,0,0,2.15,27.26Z"/><path d="M132.79,41.85a16.64,16.64,0,0,0-5.63.79,10.59,10.59,0,0,0-4.25,3l4.35,4.26a6.53,6.53,0,0,1,5.23-2.26c3.4,0,5.09,1.43,5.09,4.31v1.36h-6.45c-3,0-5.35.75-6.94,2.24a7.46,7.46,0,0,0-2.39,5.7,8.56,8.56,0,0,0,2.32,6.22c1.54,1.57,3.84,2.36,6.94,2.36a9.09,9.09,0,0,0,6.72-2.63v2.36h6.69v-18Q144.47,41.86,132.79,41.85Zm4.79,17.61a5.56,5.56,0,0,1-.64,3.06c-.76,1.16-2.3,1.73-4.64,1.73q-3.92,0-3.92-3.15c0-2.06,1.27-3.11,3.81-3.11h5.39Z"/><path d="M167.39,58.73a5,5,0,0,1-1.45,3.89,4.34,4.34,0,0,1-3.07,1.11,4.28,4.28,0,0,1-3-1.11,5,5,0,0,1-1.45-3.89V42.17h-6.89V59.68q0,5,2.79,7.78a8.75,8.75,0,0,0,6.47,2.42A9,9,0,0,0,167.6,67v2.52h6.68V42.17h-6.89Z"/><path d="M189.47,34.86h-6.88V43H179.7v5.2h2.89V61.73a7.84,7.84,0,0,0,1.89,5.36,7.59,7.59,0,0,0,6.05,2.47h3.73V63.78h-2.44c-1.56,0-2.35-.82-2.35-2.47V48.16h4.79V43h-4.79Z"/><path d="M222.92,54.94a13.74,13.74,0,0,0-3.11-9.35A11.08,11.08,0,0,0,211,41.85a11,11,0,0,0-8.62,3.63c-2.21,2.52-3.32,6-3.32,10.35q0,14.06,12.67,14a13.1,13.1,0,0,0,10.42-4.31l-4.16-4a8.43,8.43,0,0,1-6.2,2.57,5.78,5.78,0,0,1-4.39-1.68,6.12,6.12,0,0,1-1.6-4.42h17.14Zm-17.14-1.63a7.35,7.35,0,0,1,.63-2.93,5.1,5.1,0,0,1,9.15,0,7.35,7.35,0,0,1,.62,2.93Z"/><path d="M240.14,48a5.92,5.92,0,0,1,4.41,2.16l4.61-4.63a12,12,0,0,0-9-3.68A11.74,11.74,0,0,0,232,44.69q-4.1,3.63-4.1,11.15T232,67a11.74,11.74,0,0,0,8.15,2.84,12,12,0,0,0,9-3.73l-4.61-4.58a5.92,5.92,0,0,1-4.41,2.16,4.81,4.81,0,0,1-3.9-1.84q-1.49-1.85-1.49-6t1.49-6A4.81,4.81,0,0,1,240.14,48Z"/><path d="M267.91,41.85a8.87,8.87,0,0,0-6.55,2.84V32.12h-6.89V69.56h6.89V52.84a4.93,4.93,0,0,1,1.4-3.79,4.25,4.25,0,0,1,3-1,4.43,4.43,0,0,1,3,1,4.85,4.85,0,0,1,1.41,3.79V69.56H277V51.84a10.58,10.58,0,0,0-2.31-7.15A8.54,8.54,0,0,0,267.91,41.85Z"/><path d="M284.39,71.56A2.15,2.15,0,0,1,282,74h-2.61v5.79h3.89a7.66,7.66,0,0,0,6.1-2.48,7.83,7.83,0,0,0,1.9-5.36V42.17h-6.89Z"/><rect x="284.39" y="31.97" width="6.89" height="5.57"/><path d="M317.72,45.16a12.42,12.42,0,0,0-16.88,0c-2.11,2.22-3.15,5.78-3.15,10.67a25.17,25.17,0,0,0,.63,6.26,9.86,9.86,0,0,0,2.47,4.43,12.42,12.42,0,0,0,17,0,9.86,9.86,0,0,0,2.47-4.43,25.17,25.17,0,0,0,.63-6.26Q320.88,48.5,317.72,45.16Zm-5.29,17.36a4.28,4.28,0,0,1-3.17,1.21,4.23,4.23,0,0,1-3.12-1.21c-1-1.06-1.56-3.28-1.56-6.69s.52-5.56,1.56-6.61A4.16,4.16,0,0,1,309.26,48a4.21,4.21,0,0,1,3.17,1.22Q314,50.8,314,55.83C314,59.24,313.47,61.46,312.43,62.52Z"/><path d="M350,49.58a9.56,9.56,0,0,0-2.41-5.26,9,9,0,0,0-6.66-2.47,8.46,8.46,0,0,0-6.61,2.74V32.13H327.4V69.56H334V67a8.81,8.81,0,0,0,6.84,2.89,9,9,0,0,0,6.67-2.47A9.47,9.47,0,0,0,350,62.14a40.46,40.46,0,0,0,.36-6.31A40.19,40.19,0,0,0,350,49.58Zm-7.1,11.47a4.33,4.33,0,0,1-8,0,16.52,16.52,0,0,1-.58-5.22,16.46,16.46,0,0,1,.58-5.2,4.36,4.36,0,0,1,8,0,16.46,16.46,0,0,1,.58,5.2A16.52,16.52,0,0,1,342.86,61.05Z"/><path d="M369.36,52.89l-4.31-.42c-1.9-.17-2.85-1-2.85-2.36q0-2.62,3.9-2.63,4.31,0,6.36,1.84l4.21-4.26q-3.42-3.21-10.47-3.21a11.94,11.94,0,0,0-7.36,2.21,7.74,7.74,0,0,0-3.21,6.52q0,6.89,8,7.68l4.32.42c1.92.17,2.89,1,2.89,2.52,0,1.9-1.61,2.84-4.84,2.84s-5.59-.86-7.31-2.58l-4.46,4.47a12.57,12.57,0,0,0,5.41,3.27,23.86,23.86,0,0,0,6.26.68,14.1,14.1,0,0,0,8.25-2.21,7.73,7.73,0,0,0,3.37-6.73Q377.51,53.68,369.36,52.89Z"/></svg>