<svg id="Layer_1" data-name="Layer 1" xmlns="http://www.w3.org/2000/svg" viewBox="0 0 337.69 115.71"><title>autechjobs</title><path d="M103.66,50.75c0,21.67-23.88,42.4-33.14,49.63V65a14,14,0,0,0-1.78-27.71l-.42-.74-.53-.92c-.26-.46-.53-.92-.82-1.35a20.83,20.83,0,0,0-4.37-4.79c-.33-.27-.69-.53-1-.76a20.93,20.93,0,0,0-8-3.48c-.46-.1-.92-.17-1.37-.23a20.38,20.38,0,0,0-2.83-.2H44a35.44,35.44,0,0,1,59.65,25.89Z"/><path d="M65.92,65.17v35.24a128.92,128.92,0,0,1-19-18.13l-.69-.82H21.08A16.63,16.63,0,0,1,4.49,64.87V46.05A16.61,16.61,0,0,1,21.08,29.46H49.33a11,11,0,0,1,1.54.1,5.36,5.36,0,0,1,.69.06,8.21,8.21,0,0,1,1.19.2,4.69,4.69,0,0,1,.72.17,16.32,16.32,0,0,1,3.28,1.21c.43.23.86.46,1.25.72a14.3,14.3,0,0,1,3.42,2.83c.1.1,1.07,1.22,1.27,1.48s1,1.45,1.08,1.68a14,14,0,0,0,2.15,27.26Z"/><path d="M130,43.37a12.42,12.42,0,0,0-4.22.59,7.94,7.94,0,0,0-3.19,2.25l3.26,3.19a4.9,4.9,0,0,1,3.92-1.69c2.55,0,3.82,1.07,3.82,3.23v1h-4.84a7.31,7.31,0,0,0-5.2,1.68,5.59,5.59,0,0,0-1.79,4.27,6.39,6.39,0,0,0,1.74,4.66,7,7,0,0,0,5.2,1.77,6.83,6.83,0,0,0,5-2v1.77h5V50.62Q138.79,43.38,130,43.37Zm3.59,13.2a4.18,4.18,0,0,1-.48,2.29c-.57.87-1.73,1.3-3.48,1.3-2,0-2.94-.79-2.94-2.36s1-2.33,2.86-2.33h4Z"/><path d="M156,56a3.76,3.76,0,0,1-1.09,2.92,3.27,3.27,0,0,1-2.3.82,3.21,3.21,0,0,1-2.26-.82A3.73,3.73,0,0,1,149.24,56V43.6h-5.17V56.73a7.88,7.88,0,0,0,2.09,5.83A6.56,6.56,0,0,0,151,64.38a6.76,6.76,0,0,0,5.13-2.13v1.89h5V43.6H156Z"/><path d="M172.53,38.12h-5.16V44.2H165.2v3.9h2.17V58.27a5.86,5.86,0,0,0,1.42,4,5.7,5.7,0,0,0,4.53,1.85h2.8V59.8h-1.83c-1.17,0-1.76-.61-1.76-1.85V48.1h3.59V44.2h-3.59Z"/><path d="M197.6,53.18a10.32,10.32,0,0,0-2.33-7,8.32,8.32,0,0,0-6.62-2.8,8.19,8.19,0,0,0-6.46,2.72,11.36,11.36,0,0,0-2.49,7.76q0,10.53,9.5,10.53a11.06,11.06,0,0,0,4.5-.83,11.19,11.19,0,0,0,3.31-2.4l-3.12-3A6.32,6.32,0,0,1,189.24,60,4.33,4.33,0,0,1,186,58.78a4.6,4.6,0,0,1-1.2-3.31H197.6ZM184.75,52a5.52,5.52,0,0,1,.47-2.2,3.83,3.83,0,0,1,6.86,0,5.52,5.52,0,0,1,.47,2.2Z"/><path d="M210.51,48a4.43,4.43,0,0,1,3.3,1.61l3.46-3.46a9,9,0,0,0-6.78-2.76,8.78,8.78,0,0,0-6.11,2.13q-3.07,2.72-3.07,8.35t3.07,8.4a8.78,8.78,0,0,0,6.11,2.13,9,9,0,0,0,6.78-2.8l-3.46-3.43a4.4,4.4,0,0,1-3.3,1.61,3.58,3.58,0,0,1-2.92-1.37c-.75-.92-1.12-2.43-1.12-4.54a7.13,7.13,0,0,1,1.12-4.49A3.59,3.59,0,0,1,210.51,48Z"/><path d="M231.32,43.37a6.65,6.65,0,0,0-4.91,2.13V36.08h-5.16V64.14h5.16V51.61a3.66,3.66,0,0,1,1.06-2.84,3.11,3.11,0,0,1,2.22-.79,3.25,3.25,0,0,1,2.25.79A3.62,3.62,0,0,1,233,51.61V64.14h5.16V50.86a7.94,7.94,0,0,0-1.73-5.36A6.4,6.4,0,0,0,231.32,43.37Z"/><path d="M243.68,65.64a1.61,1.61,0,0,1-1.8,1.85h-1.95v4.34h2.92A5.73,5.73,0,0,0,247.42,70a5.83,5.83,0,0,0,1.42-4V43.6h-5.16Z"/><rect x="243.68" y="35.96" width="5.16" height="4.18"/><path d="M268.66,45.85a9.31,9.31,0,0,0-12.65,0c-1.58,1.66-2.36,4.33-2.36,8a18.76,18.76,0,0,0,.47,4.69A7.41,7.41,0,0,0,256,61.86a9.31,9.31,0,0,0,12.74,0,7.41,7.41,0,0,0,1.85-3.32,18.76,18.76,0,0,0,.47-4.69Q271,48.35,268.66,45.85Zm-4,13a3.22,3.22,0,0,1-2.38.91,3.17,3.17,0,0,1-2.34-.91q-1.17-1.19-1.17-5t1.17-5a3.13,3.13,0,0,1,2.34-.91,3.18,3.18,0,0,1,2.38.91q1.17,1.19,1.17,5T264.7,58.86Z"/><path d="M292.83,49.16A7.11,7.11,0,0,0,291,45.22a6.74,6.74,0,0,0-5-1.85,6.32,6.32,0,0,0-4.95,2.05V36.08h-5.16V64.14h5V62.21A6.6,6.6,0,0,0,286,64.38a6.76,6.76,0,0,0,5-1.85,7.11,7.11,0,0,0,1.82-4,30.35,30.35,0,0,0,.27-4.73A30.2,30.2,0,0,0,292.83,49.16Zm-5.32,8.6a3.24,3.24,0,0,1-6,0,12.49,12.49,0,0,1-.43-3.91,12.46,12.46,0,0,1,.43-3.9,3.27,3.27,0,0,1,6,0,12.46,12.46,0,0,1,.43,3.9A12.49,12.49,0,0,1,287.51,57.76Z"/><path d="M307.37,51.64l-3.23-.31Q302,51.14,302,49.56c0-1.32,1-2,2.92-2A7,7,0,0,1,309.7,49l3.15-3.19q-2.57-2.4-7.84-2.4A9,9,0,0,0,299.49,45a5.82,5.82,0,0,0-2.41,4.89q0,5.16,6,5.75l3.23.32c1.44.13,2.17.76,2.17,1.89q0,2.13-3.63,2.13a7.41,7.41,0,0,1-5.48-1.93L296,61.42a9.39,9.39,0,0,0,4.06,2.44,17.3,17.3,0,0,0,4.69.52A10.61,10.61,0,0,0,311,62.72a5.79,5.79,0,0,0,2.52-5Q313.48,52.24,307.37,51.64Z"/><polygon points="316.54 38.29 318.75 38.29 318.75 45.27 320.4 45.27 320.4 38.29 322.61 38.29 322.61 36.81 316.54 36.81 316.54 38.29"/><polygon points="329.97 36.81 327.77 41.39 325.57 36.81 323.95 36.81 323.95 45.27 325.6 45.27 325.6 40.34 327.23 43.55 328.35 43.55 329.97 40.34 329.97 45.27 331.62 45.27 331.62 36.81 329.97 36.81"/></svg>