<svg id="Layer_1" data-name="Layer 1" xmlns="http://www.w3.org/2000/svg" viewBox="0 0 381.96 115.71"><defs><style>.cls-1{fill:#fff;}</style></defs><title>autechjobs</title><path class="cls-1" d="M104.66,53.75c0,21.67-23.88,42.4-33.14,49.63V68a14,14,0,0,0-1.78-27.71l-.42-.74-.53-.92c-.26-.46-.53-.92-.82-1.35a20.83,20.83,0,0,0-4.37-4.79c-.33-.27-.69-.53-1-.76a20.93,20.93,0,0,0-8-3.48c-.46-.1-.92-.17-1.37-.23a20.38,20.38,0,0,0-2.83-.2H45a35.44,35.44,0,0,1,59.65,25.89Z"/><path class="cls-1" d="M66.92,68.17v35.24a128.92,128.92,0,0,1-19-18.13l-.69-.82H22.08A16.63,16.63,0,0,1,5.49,67.87V49.05A16.61,16.61,0,0,1,22.08,32.46H50.33a11,11,0,0,1,1.54.1,5.36,5.36,0,0,1,.69.06,8.21,8.21,0,0,1,1.19.2,4.69,4.69,0,0,1,.72.17,16.32,16.32,0,0,1,3.28,1.21c.43.23.86.46,1.25.72a14.3,14.3,0,0,1,3.42,2.83c.1.1,1.07,1.22,1.27,1.48s1,1.45,1.08,1.68a14,14,0,0,0,2.15,27.26Z"/><path class="cls-1" d="M133.75,42.91a16.5,16.5,0,0,0-5.61.78,10.63,10.63,0,0,0-4.24,3l4.34,4.24a6.53,6.53,0,0,1,5.21-2.25q5.07,0,5.07,4.3v1.35h-6.43c-3,0-5.33.75-6.91,2.23a7.46,7.46,0,0,0-2.38,5.68,8.49,8.49,0,0,0,2.31,6.19q2.3,2.35,6.91,2.35a9.07,9.07,0,0,0,6.7-2.61v2.35h6.66v-18Q145.38,42.91,133.75,42.91Zm4.77,17.54a5.48,5.48,0,0,1-.64,3c-.75,1.16-2.3,1.73-4.62,1.73q-3.91,0-3.91-3.14t3.8-3.09h5.37Z"/><path class="cls-1" d="M168.22,59.72a5,5,0,0,1-1.45,3.88,4.37,4.37,0,0,1-3.06,1.1,4.25,4.25,0,0,1-3-1.1,5,5,0,0,1-1.45-3.88V43.22H152.4V60.66q0,5,2.77,7.75a8.69,8.69,0,0,0,6.44,2.41A8.94,8.94,0,0,0,168.42,68v2.52h6.65V43.22h-6.85Z"/><path class="cls-1" d="M190.21,35.94h-6.86V44h-2.88v5.18h2.88V62.71a7.78,7.78,0,0,0,1.89,5.34,7.57,7.57,0,0,0,6,2.46H195V64.75h-2.43q-2.34,0-2.34-2.46V49.19H195V44h-4.77Z"/><path class="cls-1" d="M223.53,55.94a13.7,13.7,0,0,0-3.1-9.31,11,11,0,0,0-8.8-3.72,10.88,10.88,0,0,0-8.58,3.61c-2.21,2.51-3.31,6-3.31,10.31q0,14,12.62,14a13.08,13.08,0,0,0,10.38-4.3l-4.14-4a8.41,8.41,0,0,1-6.18,2.57A5.77,5.77,0,0,1,208,63.38,6.09,6.09,0,0,1,206.45,59h17.08Zm-17.08-1.62a7.51,7.51,0,0,1,.62-2.92,5.09,5.09,0,0,1,9.12,0,7.17,7.17,0,0,1,.62,2.92Z"/><path class="cls-1" d="M240.68,49a5.91,5.91,0,0,1,4.39,2.14l4.59-4.61a11.93,11.93,0,0,0-9-3.66,11.66,11.66,0,0,0-8.12,2.83c-2.72,2.4-4.08,6.11-4.08,11.1s1.36,8.71,4.08,11.15a11.66,11.66,0,0,0,8.12,2.83,12,12,0,0,0,9-3.71l-4.59-4.56a5.92,5.92,0,0,1-4.39,2.15,4.77,4.77,0,0,1-3.89-1.84q-1.48-1.83-1.48-6t1.48-6A4.79,4.79,0,0,1,240.68,49Z"/><path class="cls-1" d="M268.34,42.91a8.83,8.83,0,0,0-6.53,2.83V33.22H255V70.51h6.86V53.85a4.93,4.93,0,0,1,1.4-3.77,4.17,4.17,0,0,1,3-1,4.35,4.35,0,0,1,3,1,4.83,4.83,0,0,1,1.4,3.77V70.51h6.86V52.86a10.54,10.54,0,0,0-2.3-7.12A8.49,8.49,0,0,0,268.34,42.91Z"/><path class="cls-1" d="M284.75,72.5A2.14,2.14,0,0,1,282.37,75h-2.59v5.76h3.87a7.65,7.65,0,0,0,6.08-2.46,7.83,7.83,0,0,0,1.88-5.34V43.22h-6.86Z"/><rect class="cls-1" x="284.75" y="33.06" width="6.86" height="5.55"/><path class="cls-1" d="M318,46.2a12.38,12.38,0,0,0-16.81,0Q298,49.51,298,56.83a25,25,0,0,0,.63,6.24,9.82,9.82,0,0,0,2.46,4.41,12.37,12.37,0,0,0,16.93,0,9.9,9.9,0,0,0,2.45-4.41,24.58,24.58,0,0,0,.63-6.24Q321.1,49.53,318,46.2Zm-5.26,17.29a4.27,4.27,0,0,1-3.16,1.21,4.19,4.19,0,0,1-3.11-1.21q-1.56-1.58-1.56-6.66t1.56-6.59A4.15,4.15,0,0,1,309.53,49a4.23,4.23,0,0,1,3.16,1.21q1.55,1.57,1.55,6.59T312.69,63.49Z"/><path class="cls-1" d="M350.07,50.6a9.47,9.47,0,0,0-2.41-5.23A8.93,8.93,0,0,0,341,42.91a8.41,8.41,0,0,0-6.58,2.72V33.22H327.6V70.51h6.59V67.94A8.75,8.75,0,0,0,341,70.83a9,9,0,0,0,6.65-2.46,9.5,9.5,0,0,0,2.42-5.25,40.25,40.25,0,0,0,.36-6.29A40,40,0,0,0,350.07,50.6ZM343,62a4.31,4.31,0,0,1-8,0,16.42,16.42,0,0,1-.58-5.2,16.36,16.36,0,0,1,.58-5.18,4.34,4.34,0,0,1,8,0,16.73,16.73,0,0,1,.57,5.18A16.79,16.79,0,0,1,343,62Z"/><path class="cls-1" d="M369.39,53.91l-4.3-.42c-1.88-.18-2.83-1-2.83-2.36,0-1.75,1.3-2.62,3.88-2.62,2.86,0,5,.61,6.34,1.83l4.19-4.24q-3.41-3.19-10.42-3.19a11.87,11.87,0,0,0-7.34,2.2,7.7,7.7,0,0,0-3.19,6.49c0,4.58,2.65,7.12,8,7.65l4.3.42c1.91.17,2.88,1,2.88,2.51Q370.86,65,366,65t-7.28-2.57l-4.45,4.46a12.38,12.38,0,0,0,5.39,3.24,23.25,23.25,0,0,0,6.23.68,14,14,0,0,0,8.23-2.2,7.71,7.71,0,0,0,3.35-6.7Q377.51,54.69,369.39,53.91Z"/></svg>