<svg id="Layer_1" data-name="Layer 1" xmlns="http://www.w3.org/2000/svg" viewBox="0 0 107.46 97.82"><defs><style>.cls-1{fill:#0052e8;}.cls-2{fill:#5fe5f7;}.cls-3{fill:#02affd;}</style></defs><title>autechjobs</title><path class="cls-1" d="M105.4,40.69c0,28.18-37.58,54-37.58,54V54.78a14.09,14.09,0,1,0,0-28.18,13.79,13.79,0,0,0-2.42.21A18.81,18.81,0,0,0,49,17.2H38.49A37.58,37.58,0,0,1,105.4,40.69Z"/><path class="cls-2" d="M44.85,73.57h-24A18.82,18.82,0,0,1,2.06,54.76V36A18.82,18.82,0,0,1,20.87,17.2H38.49a37.39,37.39,0,0,0-8.25,23.49C30.24,52.69,37.05,64.24,44.85,73.57Z"/><path class="cls-3" d="M67.82,54.78V94.71l0,0A129.62,129.62,0,0,1,44.85,73.57c-7.8-9.33-14.61-20.88-14.61-32.88A37.39,37.39,0,0,1,38.49,17.2H49A18.81,18.81,0,0,1,65.4,26.81a14.09,14.09,0,0,0,2.42,28Z"/><path class="cls-3" d="M67.82,54.78V94.71l0,0A129.62,129.62,0,0,1,44.85,73.57c-7.8-9.33-14.61-20.88-14.61-32.88A37.39,37.39,0,0,1,38.49,17.2H49A18.81,18.81,0,0,1,65.4,26.81a14.09,14.09,0,0,0,2.42,28Z"/></svg>