<svg id="Layer_1" data-name="Layer 1" xmlns="http://www.w3.org/2000/svg" viewBox="0 0 381.96 115.71"><defs><style>.cls-1{fill:#0052e8;}.cls-2{fill:#5fe5f7;}.cls-3{fill:#02affd;}</style></defs><title>autechjobs</title><path class="cls-1" d="M107.36,53.5c0,28.19-37.58,54-37.58,54V67.6a14.1,14.1,0,0,0,0-28.19,13.79,13.79,0,0,0-2.42.21A18.8,18.8,0,0,0,51,30H40.45A37.58,37.58,0,0,1,107.36,53.5Z"/><path class="cls-2" d="M46.81,86.38h-24A18.82,18.82,0,0,1,4,67.57V48.83A18.82,18.82,0,0,1,22.83,30H40.45A37.36,37.36,0,0,0,32.2,53.5C32.2,65.51,39,77.06,46.81,86.38Z"/><path class="cls-3" d="M69.78,67.6v39.92l0,0a130.35,130.35,0,0,1-23-21.12C39,77.06,32.2,65.51,32.2,53.5A37.36,37.36,0,0,1,40.45,30H51a18.8,18.8,0,0,1,16.39,9.6,14.1,14.1,0,0,0,2.42,28Z"/><path class="cls-3" d="M69.78,67.6v39.92l0,0a130.35,130.35,0,0,1-23-21.12C39,77.06,32.2,65.51,32.2,53.5A37.36,37.36,0,0,1,40.45,30H51a18.8,18.8,0,0,1,16.39,9.6,14.1,14.1,0,0,0,2.42,28Z"/><path d="M145.68,70.25H139V67.9a9.1,9.1,0,0,1-6.7,2.61q-4.6,0-6.9-2.35A8.45,8.45,0,0,1,123.13,62a7.4,7.4,0,0,1,2.38-5.67q2.37-2.22,6.91-2.22h6.41V52.73q0-4.29-5.06-4.29a6.51,6.51,0,0,0-5.21,2.25l-4.33-4.24a10.51,10.51,0,0,1,4.24-3,16.17,16.17,0,0,1,5.6-.79q11.61,0,11.61,9.63Zm-6.85-10V58.74h-5.36q-3.79,0-3.79,3.09c0,2.09,1.29,3.14,3.89,3.14q3.5,0,4.63-1.73A5.61,5.61,0,0,0,138.83,60.21Z"/><path d="M175.34,70.25H168.7V67.74a9,9,0,0,1-6.8,2.82,8.72,8.72,0,0,1-6.44-2.4c-1.84-1.85-2.77-4.43-2.77-7.74V43h6.85V59.47A5,5,0,0,0,161,63.34a4.21,4.21,0,0,0,3,1.1,4.28,4.28,0,0,0,3-1.1,5,5,0,0,0,1.45-3.87V43h6.85Z"/><path d="M195.22,70.25H191.5a7.55,7.55,0,0,1-6-2.46,7.78,7.78,0,0,1-1.88-5.34V49h-2.88V43.78h2.88V35.73h6.84v8.05h4.77V49h-4.77V62q0,2.46,2.34,2.46h2.43Z"/><path d="M223.72,58.74H206.67a6.11,6.11,0,0,0,1.6,4.4,5.76,5.76,0,0,0,4.36,1.67,8.42,8.42,0,0,0,6.18-2.56l4.13,4a14.67,14.67,0,0,1-4.39,3.19,14.47,14.47,0,0,1-6,1.1q-12.6,0-12.6-14,0-6.54,3.29-10.31a10.91,10.91,0,0,1,8.58-3.61,11.09,11.09,0,0,1,8.79,3.72,13.67,13.67,0,0,1,3.08,9.31ZM217,54.09a7.66,7.66,0,0,0-.63-2.93,5.07,5.07,0,0,0-9.1,0,7.48,7.48,0,0,0-.63,2.93Z"/><path d="M249.83,66.85a11.92,11.92,0,0,1-9,3.71,11.68,11.68,0,0,1-8.11-2.82q-4.08-3.66-4.08-11.14t4.08-11.09a11.64,11.64,0,0,1,8.11-2.83,11.92,11.92,0,0,1,9,3.66L245.24,51a5.89,5.89,0,0,0-4.38-2.15A4.75,4.75,0,0,0,237,50.63c-1,1.23-1.49,3.21-1.49,6s.5,4.79,1.49,6a4.75,4.75,0,0,0,3.88,1.83,5.87,5.87,0,0,0,4.38-2.14Z"/><path d="M277.55,70.25H270.7V53.62a4.82,4.82,0,0,0-1.4-3.77,4.36,4.36,0,0,0-3-1.05,4.17,4.17,0,0,0-2.94,1.05,4.92,4.92,0,0,0-1.4,3.77V70.25h-6.85V33H262v12.5a8.82,8.82,0,0,1,6.52-2.83,8.5,8.5,0,0,1,6.78,2.83,10.58,10.58,0,0,1,2.29,7.11Z"/><path d="M291.73,72.65A7.78,7.78,0,0,1,289.84,78a7.62,7.62,0,0,1-6.07,2.46H279.9V74.7h2.59a2.14,2.14,0,0,0,2.38-2.46V43h6.86Zm0-34.26h-6.86V32.85h6.86Z"/><path d="M321.18,56.6a24.46,24.46,0,0,1-.63,6.22,10,10,0,0,1-2.46,4.4,12.36,12.36,0,0,1-16.9,0,10,10,0,0,1-2.46-4.4,25,25,0,0,1-.62-6.22c0-4.89,1-8.42,3.13-10.62A12.33,12.33,0,0,1,318,46C320.13,48.18,321.18,51.71,321.18,56.6Zm-6.86,0q0-5-1.55-6.59a4.22,4.22,0,0,0-3.16-1.21,4.14,4.14,0,0,0-3.1,1.21Q305,51.57,305,56.6t1.55,6.64a4.17,4.17,0,0,0,3.1,1.2,4.25,4.25,0,0,0,3.16-1.2Q314.32,61.66,314.32,56.6Z"/><path d="M350.47,56.6a39.78,39.78,0,0,1-.37,6.27,9.43,9.43,0,0,1-2.41,5.23,9,9,0,0,1-6.64,2.46,8.78,8.78,0,0,1-6.8-2.87v2.56h-6.59V33h6.85V45.4a8.41,8.41,0,0,1,6.57-2.72,8.92,8.92,0,0,1,6.62,2.46,9.36,9.36,0,0,1,2.4,5.23A39.55,39.55,0,0,1,350.47,56.6Zm-6.86,0a16.65,16.65,0,0,0-.57-5.18,4.33,4.33,0,0,0-8,0,16.65,16.65,0,0,0-.57,5.18,16.73,16.73,0,0,0,.57,5.18,4.31,4.31,0,0,0,8,0A16.73,16.73,0,0,0,343.61,56.6Z"/><path d="M377.51,61.67a7.71,7.71,0,0,1-3.35,6.7A14.06,14.06,0,0,1,366,70.56a23.25,23.25,0,0,1-6.23-.68,12.41,12.41,0,0,1-5.38-3.24l4.44-4.45q2.57,2.56,7.27,2.57c3.21,0,4.82-1,4.82-2.83,0-1.5-1-2.33-2.88-2.51L363.7,59q-7.95-.78-7.95-7.63a7.7,7.7,0,0,1,3.19-6.49,11.88,11.88,0,0,1,7.32-2.2q7,0,10.41,3.19l-4.18,4.24c-1.36-1.22-3.48-1.83-6.33-1.83q-3.89,0-3.88,2.62c0,1.39,1,2.17,2.83,2.35l4.29.42Q377.5,54.45,377.51,61.67Z"/></svg>